<svg width="88" height="26" viewBox="0 0 88 26" fill="none" xmlns="http://www.w3.org/2000/svg">
<rect x="1.78296" y="3.83984" width="17.3202" height="17.3202" stroke="black" stroke-width="3.56592"/>
<path d="M31.8669 25.2215H29.3188V9.55695H31.8669V10.8832C32.2081 10.4098 32.6258 10.0269 33.1201 9.73448C33.6214 9.43511 34.2062 9.28543 34.8745 9.28543C35.6404 9.28543 36.354 9.42815 37.0154 9.71359C37.6768 9.99904 38.2581 10.3959 38.7594 10.9041C39.2676 11.4054 39.6609 11.9867 39.9394 12.6481C40.2249 13.3095 40.3676 14.0196 40.3676 14.7785C40.3676 15.5373 40.2249 16.2509 39.9394 16.9193C39.6609 17.5877 39.2676 18.1759 38.7594 18.6842C38.2581 19.1854 37.6768 19.5788 37.0154 19.8642C36.354 20.1497 35.6404 20.2924 34.8745 20.2924C34.2062 20.2924 33.6214 20.1462 33.1201 19.8538C32.6258 19.5544 32.2081 19.168 31.8669 18.6946V25.2215ZM34.8432 11.7395C34.3141 11.7395 33.8407 11.8788 33.423 12.1573C33.0052 12.4288 32.678 12.7943 32.4413 13.2538C32.2046 13.7133 32.0862 14.2215 32.0862 14.7785C32.0862 15.3354 32.2046 15.8471 32.4413 16.3136C32.678 16.7731 33.0052 17.1421 33.423 17.4206C33.8407 17.6921 34.3141 17.8278 34.8432 17.8278C35.3793 17.8278 35.8701 17.6921 36.3157 17.4206C36.7613 17.149 37.1163 16.7835 37.3809 16.324C37.6454 15.8576 37.7777 15.3424 37.7777 14.7785C37.7777 14.2215 37.6454 13.7133 37.3809 13.2538C37.1163 12.7943 36.7613 12.4288 36.3157 12.1573C35.8771 11.8788 35.3863 11.7395 34.8432 11.7395ZM41.7812 9.55695H44.3293V20H41.7812V9.55695ZM43.0761 8.20979C42.7001 8.20979 42.3834 8.08796 42.1258 7.84429C41.8682 7.59365 41.7394 7.28036 41.7394 6.90441C41.7394 6.53542 41.8682 6.22561 42.1258 5.97498C42.3834 5.72435 42.6967 5.59903 43.0657 5.59903C43.4346 5.59903 43.7444 5.72435 43.9951 5.97498C44.2527 6.22561 44.3815 6.53542 44.3815 6.90441C44.3815 7.28036 44.2562 7.59365 44.0055 7.84429C43.7549 8.08796 43.4451 8.20979 43.0761 8.20979ZM53.0694 16.8566L55.3669 18.0994C54.8865 18.7538 54.2843 19.2794 53.5603 19.6763C52.8362 20.0731 52.046 20.2715 51.1897 20.2715C50.2289 20.2715 49.3517 20.0244 48.558 19.5301C47.7713 19.0358 47.1413 18.3744 46.6679 17.5459C46.2014 16.7104 45.9682 15.788 45.9682 14.7785C45.9682 14.0126 46.1039 13.299 46.3754 12.6376C46.647 11.9693 47.0194 11.3845 47.4929 10.8832C47.9732 10.375 48.5302 9.97815 49.1637 9.69271C49.7973 9.40726 50.4726 9.26454 51.1897 9.26454C52.046 9.26454 52.8362 9.46296 53.5603 9.85979C54.2843 10.2566 54.8865 10.7892 55.3669 11.4576L53.0694 12.6899C52.8258 12.4114 52.5368 12.1956 52.2027 12.0424C51.8755 11.8892 51.5378 11.8126 51.1897 11.8126C50.6884 11.8126 50.2359 11.9519 49.8321 12.2304C49.4283 12.5019 49.108 12.8639 48.8713 13.3164C48.6346 13.762 48.5163 14.2494 48.5163 14.7785C48.5163 15.3006 48.6346 15.788 48.8713 16.2405C49.108 16.6861 49.4283 17.0446 49.8321 17.3161C50.2359 17.5877 50.6884 17.7234 51.1897 17.7234C51.5517 17.7234 51.8963 17.6468 52.2236 17.4937C52.5508 17.3335 52.8327 17.1212 53.0694 16.8566ZM60.3225 20.188C59.7794 20.1532 59.2538 20.0453 58.7456 19.8642C58.2443 19.6763 57.7987 19.4222 57.4089 19.1019C57.019 18.7816 56.7196 18.3987 56.5108 17.9532L58.662 17.0342C58.7456 17.1734 58.8813 17.3231 59.0693 17.4832C59.2573 17.6364 59.4801 17.7652 59.7377 17.8696C60.0022 17.974 60.2911 18.0263 60.6044 18.0263C60.869 18.0263 61.1196 17.9915 61.3563 17.9218C61.6 17.8452 61.7949 17.7304 61.9411 17.5772C62.0943 17.424 62.1709 17.2256 62.1709 16.982C62.1709 16.7244 62.0804 16.5259 61.8994 16.3867C61.7253 16.2405 61.5025 16.1326 61.231 16.063C60.9665 15.9864 60.7089 15.9168 60.4582 15.8541C59.7968 15.7218 59.1807 15.5164 58.6098 15.238C58.0459 14.9595 57.5899 14.6009 57.2418 14.1623C56.9006 13.7168 56.7301 13.1807 56.7301 12.5541C56.7301 11.8649 56.9111 11.2696 57.2731 10.7683C57.6421 10.2671 58.119 9.88068 58.7038 9.60916C59.2956 9.33764 59.9326 9.20188 60.6149 9.20188C61.4434 9.20188 62.2022 9.37593 62.8915 9.72404C63.5877 10.0652 64.1377 10.549 64.5415 11.1756L62.526 12.3661C62.4285 12.199 62.2927 12.0459 62.1187 11.9066C61.9446 11.7604 61.7462 11.6421 61.5234 11.5516C61.3006 11.4541 61.0674 11.3984 60.8237 11.3845C60.5104 11.3706 60.225 11.3984 59.9674 11.468C59.7098 11.5376 59.501 11.656 59.3408 11.8231C59.1877 11.9902 59.1111 12.213 59.1111 12.4914C59.1111 12.756 59.2155 12.9544 59.4244 13.0867C59.6332 13.212 59.8839 13.3095 60.1763 13.3791C60.4756 13.4487 60.7611 13.5253 61.0326 13.6089C61.6453 13.8108 62.2196 14.0579 62.7557 14.3503C63.2987 14.6427 63.7339 15.0013 64.0611 15.4259C64.3883 15.8506 64.5449 16.3589 64.531 16.9506C64.531 17.6259 64.3291 18.2177 63.9253 18.7259C63.5215 19.2272 62.9994 19.6101 62.3589 19.8747C61.7253 20.1392 61.0465 20.2437 60.3225 20.188ZM70.75 20.2715C69.7893 20.2715 68.912 20.0244 68.1184 19.5301C67.3317 19.0358 66.7016 18.3709 66.2282 17.5354C65.7617 16.7 65.5285 15.7775 65.5285 14.768C65.5285 14.0092 65.6643 13.299 65.9358 12.6376C66.2073 11.9693 66.5798 11.3845 67.0532 10.8832C67.5336 10.375 68.0905 9.97815 68.7241 9.69271C69.3576 9.40726 70.0329 9.26454 70.75 9.26454C71.5646 9.26454 72.3095 9.43859 72.9848 9.78669C73.6671 10.1278 74.245 10.5978 74.7184 11.1965C75.1918 11.7952 75.5364 12.4775 75.7522 13.2433C75.9681 14.0092 76.0168 14.8098 75.8984 15.6452H68.2646C68.362 16.0351 68.5222 16.3867 68.745 16.7C68.9677 17.0063 69.2497 17.2535 69.5908 17.4415C69.932 17.6225 70.3184 17.7165 70.75 17.7234C71.1956 17.7304 71.5994 17.6259 71.9614 17.4101C72.3304 17.1873 72.6367 16.888 72.8804 16.512L75.4807 17.1177C75.056 18.0437 74.4225 18.8025 73.5801 19.3943C72.7377 19.9791 71.7943 20.2715 70.75 20.2715ZM68.181 13.7342H73.319C73.2424 13.3164 73.0788 12.9405 72.8282 12.6063C72.5845 12.2652 72.2817 11.9937 71.9196 11.7918C71.5576 11.5899 71.1677 11.4889 70.75 11.4889C70.3323 11.4889 69.9459 11.5899 69.5908 11.7918C69.2358 11.9867 68.9329 12.2547 68.6823 12.5959C68.4386 12.9301 68.2715 13.3095 68.181 13.7342ZM77.4344 20V4.33542H79.9825V20H77.4344ZM82.4927 20V4.33542H85.0408V20H82.4927Z" fill="#1F2025"/>
</svg>
