<svg width="86" height="67" viewBox="0 0 86 67" fill="none" xmlns="http://www.w3.org/2000/svg">
<path fill-rule="evenodd" clip-rule="evenodd" d="M13.2092 27.9828H19.8984H23.8984V31.9828V39.5V43.5H19.8984H12.3812H8.3812V39.5V32.8104H8.3816H12.3812V39.5H19.8984V31.9828H13.2092V27.9828Z" fill="black"/>
<path d="M10.1055 23.5H4.2434V29.3621H10.1055V23.5Z" fill="#4469FF"/>
<path d="M38.143 47.9565H35.2362V30.0869H38.143V31.5999C38.5322 31.0598 39.0087 30.623 39.5726 30.2895C40.1444 29.9479 40.8115 29.7772 41.574 29.7772C42.4476 29.7772 43.2616 29.94 44.0161 30.2656C44.7706 30.5913 45.4338 31.0439 46.0056 31.6237C46.5854 32.1955 47.0341 32.8587 47.3518 33.6132C47.6774 34.3677 47.8402 35.1778 47.8402 36.0435C47.8402 36.9091 47.6774 37.7232 47.3518 38.4856C47.0341 39.2481 46.5854 39.9192 46.0056 40.499C45.4338 41.0708 44.7706 41.5195 44.0161 41.8451C43.2616 42.1708 42.4476 42.3336 41.574 42.3336C40.8115 42.3336 40.1444 42.1668 39.5726 41.8332C39.0087 41.4917 38.5322 41.0509 38.143 40.5109V47.9565ZM41.5382 32.5768C40.9346 32.5768 40.3946 32.7356 39.918 33.0533C39.4415 33.363 39.0682 33.78 38.7982 34.3042C38.5282 34.8283 38.3932 35.4081 38.3932 36.0435C38.3932 36.6788 38.5282 37.2626 38.7982 37.7947C39.0682 38.3189 39.4415 38.7398 39.918 39.0575C40.3946 39.3672 40.9346 39.5221 41.5382 39.5221C42.1498 39.5221 42.7097 39.3672 43.218 39.0575C43.7263 38.7477 44.1313 38.3308 44.4331 37.8066C44.7349 37.2745 44.8858 36.6868 44.8858 36.0435C44.8858 35.4081 44.7349 34.8283 44.4331 34.3042C44.1313 33.78 43.7263 33.363 43.218 33.0533C42.7176 32.7356 42.1577 32.5768 41.5382 32.5768ZM49.4528 30.0869H52.3596V42H49.4528V30.0869ZM50.93 28.5501C50.5011 28.5501 50.1398 28.4112 49.8459 28.1332C49.5521 27.8473 49.4051 27.4899 49.4051 27.061C49.4051 26.6401 49.5521 26.2867 49.8459 26.0007C50.1398 25.7148 50.4972 25.5719 50.9181 25.5719C51.339 25.5719 51.6924 25.7148 51.9784 26.0007C52.2722 26.2867 52.4191 26.6401 52.4191 27.061C52.4191 27.4899 52.2762 27.8473 51.9903 28.1332C51.7044 28.4112 51.3509 28.5501 50.93 28.5501ZM54.2115 42L58.5717 36.0196L54.2472 30.075H57.8331L60.3586 33.5417L62.8961 30.075H66.482L62.1575 36.0196L66.5177 42H62.9319L60.3586 38.4737L57.7973 42H54.2115ZM72.9132 42.3097C71.8171 42.3097 70.8165 42.0278 69.9111 41.4639C69.0136 40.9 68.2949 40.1416 67.7548 39.1885C67.2227 38.2355 66.9566 37.1831 66.9566 36.0316C66.9566 35.1659 67.1115 34.3558 67.4212 33.6013C67.731 32.8388 68.1559 32.1717 68.6959 31.5999C69.2439 31.0201 69.8793 30.5674 70.602 30.2418C71.3247 29.9162 72.0951 29.7534 72.9132 29.7534C73.8424 29.7534 74.6922 29.9519 75.4625 30.349C76.2409 30.7382 76.9001 31.2743 77.4401 31.9573C77.9802 32.6403 78.3733 33.4186 78.6195 34.2922C78.8657 35.1659 78.9213 36.0792 78.7863 37.0323H70.0778C70.189 37.477 70.3717 37.8781 70.6258 38.2355C70.88 38.5849 71.2016 38.8669 71.5908 39.0813C71.98 39.2878 72.4207 39.395 72.9132 39.403C73.4214 39.4109 73.8821 39.2918 74.2951 39.0456C74.716 38.7914 75.0654 38.4499 75.3434 38.021L78.3098 38.712C77.8253 39.7683 77.1026 40.634 76.1416 41.309C75.1806 41.9762 74.1045 42.3097 72.9132 42.3097ZM69.9825 34.8522H75.8438C75.7564 34.3756 75.5698 33.9468 75.2839 33.5655C75.0059 33.1764 74.6604 32.8666 74.2474 32.6363C73.8344 32.406 73.3897 32.2908 72.9132 32.2908C72.4366 32.2908 71.9958 32.406 71.5908 32.6363C71.1858 32.8587 70.8403 33.1645 70.5544 33.5536C70.2764 33.9349 70.0858 34.3677 69.9825 34.8522ZM80.5384 42V24.1304H83.4452V42H80.5384Z" fill="#1F2025"/>
</svg>
