<svg width="12" height="14" viewBox="0 0 12 14" fill="none" xmlns="http://www.w3.org/2000/svg">
<path d="M4.67862 2.68005L5.06808 3.76161C5.50071 4.96199 6.44598 5.90726 7.64637 6.33989L8.72792 6.72935C8.82541 6.76475 8.82541 6.90298 8.72792 6.9379L7.64637 7.32736C6.44598 7.75998 5.50071 8.70525 5.06808 9.90564L4.67862 10.9872C4.64322 11.0847 4.50499 11.0847 4.47007 10.9872L4.08061 9.90564C3.64799 8.70525 2.70272 7.75998 1.50233 7.32736L0.420771 6.9379C0.323285 6.90249 0.323285 6.76427 0.420771 6.72935L1.50233 6.33989C2.70272 5.90726 3.64799 4.96199 4.08061 3.76161L4.47007 2.68005C4.50499 2.58207 4.64322 2.58207 4.67862 2.68005Z" fill="#E98501"/>
<path d="M9.54695 0.0809236L9.74434 0.628494C9.96357 1.2362 10.4423 1.7149 11.05 1.93412L11.5975 2.13152C11.647 2.14947 11.647 2.21931 11.5975 2.23725L11.05 2.43465C10.4423 2.65387 9.96357 3.13257 9.74434 3.74028L9.54695 4.28785C9.529 4.33732 9.45916 4.33732 9.44122 4.28785L9.24382 3.74028C9.0246 3.13257 8.5459 2.65387 7.93819 2.43465L7.39062 2.23725C7.34115 2.21931 7.34115 2.14947 7.39062 2.13152L7.93819 1.93412C8.5459 1.7149 9.0246 1.2362 9.24382 0.628494L9.44122 0.0809236C9.45916 0.0309682 9.52949 0.0309682 9.54695 0.0809236Z" fill="#E98501"/>
<path d="M9.54695 9.37975L9.74434 9.92732C9.96357 10.535 10.4423 11.0137 11.05 11.233L11.5975 11.4304C11.647 11.4483 11.647 11.5181 11.5975 11.5361L11.05 11.7335C10.4423 11.9527 9.96357 12.4314 9.74434 13.0391L9.54695 13.5867C9.529 13.6362 9.45916 13.6362 9.44122 13.5867L9.24382 13.0391C9.0246 12.4314 8.5459 11.9527 7.93819 11.7335L7.39062 11.5361C7.34115 11.5181 7.34115 11.4483 7.39062 11.4304L7.93819 11.233C8.5459 11.0137 9.0246 10.535 9.24382 9.92732L9.44122 9.37975C9.45916 9.33028 9.52949 9.33028 9.54695 9.37975Z" fill="#E98501"/>
</svg>
