<svg width="33" height="26" viewBox="0 0 33 26" fill="none" xmlns="http://www.w3.org/2000/svg">
<path d="M21.6844 12.205L14.1844 7.5175C13.8954 7.33688 13.5311 7.32732 13.2331 7.4925C12.9349 7.65769 12.75 7.97169 12.75 8.3125V17.6875C12.75 18.0283 12.9349 18.3423 13.2331 18.5075C13.3747 18.586 13.5312 18.625 13.6875 18.625C13.8602 18.625 14.0326 18.5773 14.1844 18.4825L21.6844 13.795C21.9585 13.6237 22.125 13.3233 22.125 13C22.125 12.6768 21.9586 12.3763 21.6844 12.205ZM14.6251 15.996V10.0039L19.4187 13L14.6251 15.996Z" fill="#B3B3B3"/>
<path d="M27.8125 0.8125H5.1875C2.60281 0.8125 0.5 2.91531 0.5 5.5V20.5C0.5 23.0847 2.60281 25.1875 5.1875 25.1875H27.8125C30.3972 25.1875 32.5 23.0847 32.5 20.5V5.5C32.5 2.91531 30.3972 0.8125 27.8125 0.8125ZM30.625 20.5C30.625 22.0508 29.3633 23.3125 27.8125 23.3125H5.1875C3.63669 23.3125 2.375 22.0508 2.375 20.5V5.5C2.375 3.94919 3.63669 2.6875 5.1875 2.6875H27.8125C29.3633 2.6875 30.625 3.94919 30.625 5.5V20.5Z" fill="#B3B3B3"/>
</svg>
