<svg width="16" height="16" viewBox="0 0 16 16" fill="none" xmlns="http://www.w3.org/2000/svg">
<path fill-rule="evenodd" clip-rule="evenodd" d="M1.00073 13.5864C0.610233 13.977 0.610293 14.6101 1.00085 15.0006C1.39141 15.3911 2.02457 15.3911 2.41506 15.0005L8.0003 9.41427L13.586 15C13.9765 15.3905 14.6097 15.3905 15.0002 15C15.3907 14.6095 15.3907 13.9763 15.0002 13.5858L9.4144 7.99997L14.9998 2.41359C15.3902 2.02303 15.3902 1.38987 14.9996 0.999381C14.6091 0.608881 13.9759 0.60894 13.5854 0.9995L8.0001 6.58577L2.41438 0.999981C2.02386 0.60946 1.39069 0.60946 1.00017 0.999981C0.609643 1.39051 0.609643 2.02367 1.00017 2.4142L6.5861 8.00007L1.00073 13.5864Z" fill="black"/>
</svg>
