<svg width="18" height="20" viewBox="0 0 18 20" fill="none" xmlns="http://www.w3.org/2000/svg">
<path d="M8.36372 12.5144L8.36381 12.5145C8.95938 13.715 9.15521 14.3358 9.25322 15.4258C9.26894 15.6006 9.27749 15.8023 9.28021 16.026C9.28347 16.293 9.27837 16.5768 9.26794 16.856C9.26708 16.8792 9.26619 16.9018 9.26529 16.9239C9.31713 16.965 9.36084 16.9853 9.4025 16.9923C9.45257 17.0008 9.51431 16.9923 9.6028 16.9507C10.5221 16.5189 11.2756 15.3749 10.9865 14.2126C10.8379 13.6152 10.7442 13.1439 10.6958 12.7772C10.6476 12.4123 10.6434 12.1438 10.6789 11.9553C10.6936 11.8771 10.7163 11.8071 10.7497 11.7452C10.8541 11.5516 11.062 11.4399 11.278 11.4673C11.3087 11.4711 11.37 11.4783 11.4584 11.4878C11.6068 11.5036 11.7748 11.5194 11.9587 11.5343C12.7118 11.595 13.4812 11.6199 14.194 11.5889C14.6248 11.5701 15.0158 11.5313 15.3579 11.471C15.6312 11.4228 15.793 11.3395 15.8905 11.2142C15.9894 11.0871 16.0373 10.8977 16.0371 10.6014C16.0369 10.452 16.0021 10.2779 15.9503 10.1243C15.8973 9.96699 15.8323 9.84835 15.7824 9.79857C15.5572 9.57422 15.5661 9.19744 15.8022 8.98488C15.8308 8.95911 15.8682 8.88336 15.8839 8.74889C15.8989 8.62084 15.8919 8.45863 15.8532 8.28454C15.8157 8.11623 15.7571 7.97563 15.697 7.87663C15.6669 7.82701 15.6377 7.79001 15.6125 7.76546C15.6 7.75325 15.5896 7.74518 15.5816 7.74019C15.5766 7.73707 15.5734 7.73565 15.5718 7.73505C15.5708 7.73468 15.5705 7.73464 15.5709 7.73472C15.2602 7.67227 15.0758 7.3476 15.1615 7.04042C15.2724 6.64292 15.3012 6.34481 15.2413 6.10001C15.1824 5.85956 15.0341 5.65647 14.7588 5.45614C14.6094 5.34745 14.5253 5.16787 14.533 4.98116C14.5513 4.54228 14.5198 4.25547 14.4555 4.0695C14.3933 3.88958 14.3026 3.80926 14.1949 3.77015C14.1265 3.7453 14.0786 3.73651 13.8832 3.71579C13.8328 3.71044 13.7972 3.70612 13.76 3.70024C13.2574 3.62069 11.8377 3.58877 10.3417 3.60473C8.8911 3.62021 7.38552 3.68049 6.59984 3.78263C6.26075 5.33596 6.1409 8.10763 6.41311 10.2531C6.48785 10.3155 6.5702 10.3863 6.65834 10.4647C6.91997 10.6974 7.18194 10.9511 7.42795 11.2188C7.82885 11.6549 8.15156 12.0887 8.36372 12.5144ZM6.65854 11.9794C6.51309 11.8212 6.36001 11.667 6.20424 11.5197C6.12226 11.557 6.02927 11.5736 5.9318 11.5623C4.19004 11.3602 3.33411 11.3934 2.02952 11.762C1.72137 11.8491 1.41619 11.6379 1.36545 11.3203C0.783904 7.67956 0.690808 4.95248 1.41168 2.48248C1.47194 2.276 1.64406 2.12247 1.85458 2.09525C3.10047 1.93416 3.8637 1.86412 4.5105 1.91787C5.16119 1.97194 5.68918 2.15082 6.46516 2.4753C6.5619 2.51575 6.64067 2.5824 6.69717 2.66359C7.63397 2.56517 9.15186 2.51047 10.5716 2.50018C12.0212 2.48968 13.3821 2.52529 13.9204 2.6105C13.9349 2.61279 13.9549 2.61527 13.9914 2.61915C14.2587 2.6475 14.3666 2.6645 14.5463 2.72975C14.8904 2.85472 15.1564 3.08739 15.3346 3.43278C15.5066 3.76609 15.5949 4.20045 15.5999 4.73859C15.9284 5.03009 16.1401 5.35713 16.2482 5.72458C16.355 6.08744 16.3588 6.48329 16.2824 6.91389C16.5894 7.18374 16.8001 7.61436 16.8948 8.06388C16.9903 8.51749 16.9714 9.00811 16.7981 9.39646C16.9811 9.74422 17.0997 10.1942 17.1 10.6005C17.1004 11.1325 16.9763 11.5772 16.713 11.9133C16.4489 12.2503 16.054 12.4664 15.5361 12.5578C15.1445 12.6268 14.7095 12.6698 14.2386 12.6903C13.477 12.7234 12.6667 12.697 11.8762 12.6333C11.8333 12.6298 11.7912 12.6263 11.75 12.6228C11.7949 12.9624 11.8798 13.3904 12.0158 13.9373C12.4556 15.7059 11.3727 17.3295 10.0415 17.9549C9.47385 18.2215 8.95005 18.1022 8.55667 17.7485C8.41985 17.6254 8.32495 17.4999 8.26694 17.3985C8.21262 17.3035 8.18718 17.194 8.19353 17.0843C8.19651 17.0327 8.20114 16.9381 8.2058 16.8133C8.2156 16.5509 8.22035 16.2854 8.21736 16.0399C8.21494 15.8418 8.20752 15.6688 8.19487 15.5281C8.111 14.5954 7.95857 14.1072 7.42149 13.0247C7.26261 12.7059 7.00021 12.3511 6.65854 11.9794ZM2.33531 3.14474C1.81395 5.18801 1.87281 7.51533 2.32321 10.5507C3.31315 10.323 4.1507 10.2874 5.35904 10.395C5.05952 8.03165 5.20482 4.99181 5.61612 3.31551C5.13044 3.12974 4.76214 3.03319 4.30312 3.00767C3.82607 2.98115 3.24769 3.0311 2.33531 3.14474Z" fill="#E1AD1B" stroke="#E1AD1B" stroke-width="0.2"/>
</svg>
