<svg width="16" height="15" viewBox="0 0 16 15" fill="none" xmlns="http://www.w3.org/2000/svg">
<path d="M13.7344 14.9919H5.76562C4.79626 14.9919 4.00781 14.2035 4.00781 13.2341V5.26538C4.00781 4.29602 4.79626 3.50757 5.76562 3.50757H13.7344C14.7037 3.50757 15.4922 4.29602 15.4922 5.26538V13.2341C15.4922 14.2035 14.7037 14.9919 13.7344 14.9919ZM5.76562 4.67944C5.44254 4.67944 5.17969 4.94229 5.17969 5.26538V13.2341C5.17969 13.5572 5.44254 13.8201 5.76562 13.8201H13.7344C14.0575 13.8201 14.3203 13.5572 14.3203 13.2341V5.26538C14.3203 4.94229 14.0575 4.67944 13.7344 4.67944H5.76562ZM2.83594 10.3044H2.25C1.92691 10.3044 1.66406 10.0416 1.66406 9.71851V1.74976C1.66406 1.42667 1.92691 1.16382 2.25 1.16382H10.2188C10.5418 1.16382 10.8047 1.42667 10.8047 1.74976V2.3064H11.9766V1.74976C11.9766 0.780396 11.1881 -0.00805664 10.2188 -0.00805664H2.25C1.28064 -0.00805664 0.492188 0.780396 0.492188 1.74976V9.71851C0.492188 10.6879 1.28064 11.4763 2.25 11.4763H2.83594V10.3044Z" fill="black"/>
</svg>
