<svg width="18" height="18" viewBox="0 0 18 18" fill="none" xmlns="http://www.w3.org/2000/svg">
<path d="M9.63628 11.5144L9.63619 11.5145C9.04062 12.715 8.84479 13.3358 8.74678 14.4258C8.73106 14.6006 8.72251 14.8023 8.71979 15.026C8.71653 15.293 8.72163 15.5768 8.73206 15.856C8.73292 15.8792 8.73381 15.9018 8.73471 15.9239C8.68287 15.965 8.63916 15.9853 8.5975 15.9923C8.54743 16.0008 8.48569 15.9923 8.3972 15.9507C7.47789 15.5189 6.72443 14.3749 7.01348 13.2126C7.16206 12.6152 7.25584 12.1439 7.30422 11.7772C7.35236 11.4123 7.35657 11.1438 7.32111 10.9553C7.3064 10.8771 7.2837 10.8071 7.25032 10.7452C7.14587 10.5516 6.93801 10.4399 6.72195 10.4673C6.69133 10.4711 6.63005 10.4783 6.5416 10.4878C6.39316 10.5036 6.22517 10.5194 6.04134 10.5343C5.28817 10.595 4.51876 10.6199 3.80596 10.5889C3.37517 10.5701 2.98424 10.5313 2.64214 10.471C2.36875 10.4228 2.20696 10.3395 2.10946 10.2142C2.01058 10.0871 1.9627 9.89768 1.96294 9.60141C1.96307 9.45203 1.99789 9.27794 2.04969 9.12427C2.10271 8.96699 2.16768 8.84835 2.21764 8.79857C2.44276 8.57422 2.43391 8.19744 2.19779 7.98488C2.16916 7.95911 2.13185 7.88336 2.1161 7.74889C2.1011 7.62084 2.1081 7.45863 2.14683 7.28454C2.18427 7.11623 2.24294 6.97563 2.30302 6.87663C2.33313 6.82701 2.36229 6.79001 2.38746 6.76546C2.39997 6.75325 2.41042 6.74518 2.4184 6.74019C2.42339 6.73707 2.42665 6.73565 2.42819 6.73505C2.42918 6.73468 2.42947 6.73464 2.42907 6.73472C2.73983 6.67227 2.92416 6.3476 2.83848 6.04042C2.72762 5.64292 2.69878 5.34481 2.75874 5.10001C2.81764 4.85956 2.96589 4.65647 3.24124 4.45614C3.39064 4.34745 3.47473 4.16787 3.46697 3.98116C3.44872 3.54228 3.48016 3.25547 3.54449 3.0695C3.60673 2.88958 3.69741 2.80926 3.80511 2.77015C3.87352 2.7453 3.92144 2.73651 4.11678 2.71579C4.16721 2.71044 4.20284 2.70612 4.24 2.70024C4.74255 2.62069 6.16231 2.58877 7.6583 2.60473C9.1089 2.62021 10.6145 2.68049 11.4002 2.78263C11.7392 4.33596 11.8591 7.10763 11.5869 9.25313C11.5122 9.31551 11.4298 9.38632 11.3417 9.46471C11.08 9.69736 10.8181 9.9511 10.572 10.2188C10.1712 10.6549 9.84844 11.0887 9.63628 11.5144ZM11.3415 10.9794C11.4869 10.8212 11.64 10.667 11.7958 10.5197C11.8777 10.557 11.9707 10.5736 12.0682 10.5623C13.81 10.3602 14.6659 10.3934 15.9705 10.762C16.2786 10.8491 16.5838 10.6379 16.6345 10.3203C17.2161 6.67955 17.3092 3.95249 16.5883 1.48248C16.5281 1.276 16.3559 1.12247 16.1454 1.09525C14.8995 0.934156 14.1363 0.86412 13.4895 0.917871C12.8388 0.971945 12.3108 1.15082 11.5348 1.4753C11.4381 1.51575 11.3593 1.5824 11.3028 1.66359C10.366 1.56516 8.84814 1.51047 7.42836 1.50018C5.97884 1.48968 4.61788 1.52529 4.07957 1.6105C4.06509 1.61279 4.04508 1.61527 4.00858 1.61915C3.74135 1.6475 3.63336 1.66449 3.4537 1.72975C3.10961 1.85472 2.84356 2.08739 2.66538 2.43278C2.49343 2.76609 2.40515 3.20045 2.4001 3.73859C2.07158 4.03009 1.85986 4.35713 1.75176 4.72458C1.64501 5.08744 1.64116 5.48329 1.71763 5.91389C1.41059 6.18374 1.19986 6.61436 1.10522 7.06388C1.00972 7.51749 1.02865 8.00811 1.20186 8.39646C1.01889 8.74422 0.900337 9.19418 0.900002 9.60046C0.899559 10.1325 1.0237 10.5772 1.28701 10.9133C1.55107 11.2503 1.94598 11.4664 2.46392 11.5578C2.85546 11.6268 3.29049 11.6698 3.76143 11.6903C4.52303 11.7234 5.33329 11.697 6.12377 11.6333C6.16667 11.6298 6.20877 11.6263 6.25004 11.6228C6.20511 11.9624 6.12023 12.3904 5.98423 12.9373C5.54436 14.7059 6.62727 16.3295 7.95854 16.9549C8.52615 17.2215 9.04995 17.1022 9.44333 16.7485C9.58015 16.6254 9.67505 16.4999 9.73306 16.3985C9.78738 16.3035 9.81282 16.194 9.80647 16.0843C9.80349 16.0327 9.79886 15.9381 9.7942 15.8133C9.7844 15.5509 9.77965 15.2854 9.78264 15.0399C9.78506 14.8418 9.79248 14.6688 9.80513 14.5281C9.889 13.5954 10.0414 13.1072 10.5785 12.0247C10.7374 11.7059 10.9998 11.3511 11.3415 10.9794ZM15.6647 2.14474C16.186 4.18801 16.1272 6.51533 15.6768 9.55067C14.6869 9.32297 13.8493 9.28736 12.641 9.39503C12.9405 7.03165 12.7952 3.99181 12.3839 2.31551C12.8696 2.12974 13.2379 2.03319 13.6969 2.00767C14.1739 1.98115 14.7523 2.0311 15.6647 2.14474Z" fill="#2B2D42" stroke="#2B2D42" stroke-width="0.2"/>
</svg>
