<svg width="19" height="18" viewBox="0 0 19 18" fill="none" xmlns="http://www.w3.org/2000/svg">
<path d="M3.73958 16.1605C3.91958 16.1605 3.95558 16.1425 4.11758 16.1065L7.35758 15.4585C7.69958 15.3685 8.04158 15.2065 8.31158 14.9365L16.1596 7.0885C17.3656 5.8825 17.3656 3.8125 16.1596 2.6065L15.4936 1.9045C14.2876 0.6985 12.1996 0.6985 10.9936 1.9045L3.14558 9.7705C2.89358 10.0225 2.71358 10.3825 2.62358 10.7245L1.93958 14.0005C1.84958 14.6125 2.02958 15.2065 2.46158 15.6385C2.80358 15.9805 3.30758 16.1605 3.73958 16.1605ZM4.35158 11.0665L12.1996 3.2005C12.7216 2.6785 13.6756 2.6785 14.1796 3.2005L14.8636 3.8845C15.4756 4.4965 15.4756 5.3605 14.8636 5.9545L7.03358 13.8205L3.70358 14.3785L4.35158 11.0665Z" fill="white"/>
</svg>
