<svg width="30" height="30" viewBox="0 0 30 30" fill="none" xmlns="http://www.w3.org/2000/svg">
<rect x="30" y="30" width="30" height="30" rx="15" transform="rotate(180 30 30)" fill="#E1FFEC"/>
<path d="M13.8491 22.9645C13.916 22.9883 13.9848 23 14.0526 23C14.245 23 14.4313 22.9069 14.5534 22.7399L20.8692 14.0733C21.0157 13.8718 21.0413 13.6 20.9352 13.3722C20.8285 13.1443 20.6089 13.0001 20.3684 13.0001H16.5789V7.66682C16.5789 7.38622 16.4124 7.13557 16.1623 7.03987C15.9122 6.94417 15.6322 7.02457 15.4619 7.24006L9.14618 15.24C8.98952 15.4389 8.9556 15.7152 9.05984 15.9496C9.16345 16.1837 9.38673 16.3334 9.63158 16.3334H13.421V22.3333C13.421 22.6188 13.5931 22.8724 13.8491 22.9645ZM10.9799 15.0001L15.3158 9.50828V13.6668C15.3158 14.0349 15.5986 14.3334 15.9473 14.3334H19.0858L14.6842 20.3734V15.6667C14.6842 15.2986 14.4014 15.0001 14.0526 15.0001H10.9799Z" fill="#22C55E"/>
</svg>
