<svg width="33" height="32" viewBox="0 0 33 32" fill="none" xmlns="http://www.w3.org/2000/svg">
<path d="M26.02 29H6.98C6.05705 29 5.1719 28.6334 4.51927 27.9807C3.86664 27.3281 3.5 26.443 3.5 25.52V6.48C3.5 5.55705 3.86664 4.6719 4.51927 4.01927C5.1719 3.36664 6.05705 3 6.98 3H26.02C26.943 3 27.8281 3.36664 28.4807 4.01927C29.1334 4.6719 29.5 5.55705 29.5 6.48V25.52C29.5 26.443 29.1334 27.3281 28.4807 27.9807C27.8281 28.6334 26.943 29 26.02 29ZM6.98 5C6.58748 5 6.21104 5.15593 5.93348 5.43348C5.65593 5.71104 5.5 6.08748 5.5 6.48V25.52C5.5 25.9125 5.65593 26.289 5.93348 26.5665C6.21104 26.8441 6.58748 27 6.98 27H26.02C26.4125 27 26.789 26.8441 27.0665 26.5665C27.3441 26.289 27.5 25.9125 27.5 25.52V6.48C27.5 6.08748 27.3441 5.71104 27.0665 5.43348C26.789 5.15593 26.4125 5 26.02 5H6.98Z" fill="#B2B2B2"/>
<path d="M4.49948 25.08C4.35544 25.0795 4.21315 25.0484 4.0821 24.9886C3.95105 24.9288 3.83425 24.8418 3.73948 24.7333C3.65419 24.6328 3.58961 24.5164 3.54946 24.3909C3.50931 24.2653 3.49439 24.133 3.50554 24.0017C3.51669 23.8703 3.5537 23.7425 3.61445 23.6255C3.67519 23.5085 3.75847 23.4047 3.85948 23.32L10.6861 17.56C11.1958 17.1298 11.8482 16.9062 12.5147 16.9334C13.1811 16.9605 13.8131 17.2364 14.2861 17.7066L17.5261 20.9466C17.6469 21.0499 17.8006 21.1067 17.9595 21.1067C18.1184 21.1067 18.2721 21.0499 18.3928 20.9466L21.5395 18.6666C22.0058 18.3077 22.5777 18.113 23.1661 18.113C23.7546 18.113 24.3265 18.3077 24.7928 18.6666L29.1261 22.12C29.2295 22.2023 29.3155 22.3041 29.3795 22.4197C29.4434 22.5352 29.484 22.6623 29.4989 22.7935C29.5137 22.9247 29.5026 23.0576 29.4661 23.1846C29.4296 23.3115 29.3684 23.43 29.2861 23.5333C29.2039 23.6366 29.102 23.7227 28.9865 23.7866C28.8709 23.8506 28.7439 23.8912 28.6126 23.906C28.4814 23.9209 28.3485 23.9097 28.2216 23.8732C28.0946 23.8367 27.9761 23.7756 27.8728 23.6933L23.5528 20.2266C23.4362 20.1369 23.2933 20.0882 23.1461 20.0882C22.999 20.0882 22.8561 20.1369 22.7395 20.2266L19.5928 22.6666C19.0806 23.0512 18.4471 23.2386 17.8081 23.1946C17.1691 23.1505 16.5674 22.8779 16.1128 22.4266L12.8728 19.12C12.7503 19.0094 12.5912 18.9482 12.4261 18.9482C12.2611 18.9482 12.102 19.0094 11.9795 19.12L5.13948 24.8533C4.96088 25.0043 4.7333 25.0849 4.49948 25.08Z" fill="#B2B2B2"/>
<path d="M20.5007 15.6668C19.7755 15.6668 19.0665 15.4518 18.4636 15.0489C17.8606 14.646 17.3906 14.0733 17.1131 13.4033C16.8356 12.7333 16.763 11.9961 16.9044 11.2848C17.0459 10.5736 17.3951 9.92023 17.9079 9.40744C18.4207 8.89465 19.0741 8.54543 19.7853 8.40395C20.4966 8.26247 21.2338 8.33508 21.9038 8.61261C22.5738 8.89013 23.1465 9.36009 23.5494 9.96307C23.9523 10.5661 24.1673 11.275 24.1673 12.0002C24.1673 12.9726 23.781 13.9053 23.0934 14.5929C22.4057 15.2805 21.4731 15.6668 20.5007 15.6668ZM20.5007 10.3335C20.171 10.3335 19.8488 10.4312 19.5747 10.6144C19.3006 10.7975 19.087 11.0578 18.9609 11.3624C18.8347 11.6669 18.8017 12.002 18.866 12.3253C18.9303 12.6486 19.0891 12.9456 19.3221 13.1787C19.5552 13.4118 19.8522 13.5705 20.1755 13.6348C20.4988 13.6991 20.8339 13.6661 21.1385 13.54C21.443 13.4138 21.7033 13.2002 21.8864 12.9261C22.0696 12.652 22.1673 12.3298 22.1673 12.0002C22.1673 11.5581 21.9917 11.1342 21.6792 10.8217C21.3666 10.5091 20.9427 10.3335 20.5007 10.3335Z" fill="#B2B2B2"/>
</svg>
