<svg width="12" height="14" viewBox="0 0 12 14" fill="none" xmlns="http://www.w3.org/2000/svg">
<path d="M9.75794 4.27939H8.39328C8.11728 4.27939 7.89328 4.50305 7.89328 4.77938C7.89328 5.05572 8.11728 5.27938 8.39328 5.27938H9.75828C10.0339 5.27938 10.2583 5.50372 10.2583 5.77938V12.3181C10.2583 12.5937 10.0339 12.8181 9.75828 12.8181H2.24194C1.96628 12.8181 1.74194 12.5937 1.74194 12.3181V5.77938C1.74194 5.50372 1.96628 5.27938 2.24194 5.27938H3.60694C3.88328 5.27938 4.10694 5.05572 4.10694 4.77938C4.10694 4.50305 3.88328 4.27939 3.60694 4.27939H2.24194C1.41494 4.27939 0.741943 4.95238 0.741943 5.77938V12.3181C0.741943 13.1451 1.41494 13.8181 2.24194 13.8181H9.75828C10.5853 13.8181 11.2583 13.1451 11.2583 12.3181V5.77938C11.2579 4.95205 10.5853 4.27939 9.75794 4.27939ZM4.13561 3.27005L5.51661 1.88905V8.47172C5.51661 8.74772 5.74028 8.97172 6.01661 8.97172C6.29294 8.97172 6.51661 8.74772 6.51661 8.47172V1.88905L7.89761 3.27005C7.99528 3.36772 8.12328 3.41638 8.25128 3.41638C8.37928 3.41638 8.50728 3.36772 8.60494 3.27005C8.80028 3.07505 8.80028 2.75805 8.60494 2.56305L6.37061 0.328385C6.17494 0.133051 5.85861 0.133051 5.66328 0.328385L3.42861 2.56305C3.23328 2.75805 3.23328 3.07505 3.42861 3.27005C3.62394 3.46538 3.94028 3.46538 4.13561 3.27005Z" fill="current"/>
</svg>
