<svg width="16" height="18" viewBox="0 0 16 18" fill="none" xmlns="http://www.w3.org/2000/svg">
<path d="M10.1875 13.8438C10.5326 13.8438 10.8125 13.5639 10.8125 13.2188V6.96875C10.8125 6.62362 10.5326 6.34375 10.1875 6.34375C9.84237 6.34375 9.5625 6.62362 9.5625 6.96875V13.2188C9.5625 13.5639 9.84237 13.8438 10.1875 13.8438Z" fill="#5A5A5A"/>
<path d="M5.8125 13.8438C6.15763 13.8438 6.4375 13.5639 6.4375 13.2188V6.96875C6.4375 6.62362 6.15763 6.34375 5.8125 6.34375C5.46737 6.34375 5.1875 6.62362 5.1875 6.96875V13.2188C5.1875 13.5639 5.46737 13.8438 5.8125 13.8438Z" fill="#5A5A5A"/>
<path d="M10.5 1.65625C10.8451 1.65625 11.125 1.37638 11.125 1.03125C11.125 0.686125 10.8451 0.40625 10.5 0.40625H5.5C5.15487 0.40625 4.875 0.686125 4.875 1.03125C4.875 1.37638 5.15487 1.65625 5.5 1.65625H10.5Z" fill="#5A5A5A"/>
<path d="M1.125 2.28125C0.779875 2.28125 0.5 2.56112 0.5 2.90625C0.5 3.25138 0.779875 3.53125 1.125 3.53125H1.75V15.0312C1.75 16.4437 2.9 17.5938 4.3125 17.5938H11.6875C13.0999 17.5938 14.25 16.4437 14.25 15.0312V3.53125H14.875C15.2201 3.53125 15.5 3.25138 15.5 2.90625C15.5 2.56112 15.2201 2.28125 14.875 2.28125H13.625H2.375H1.125ZM13 3.53125V15.0312C13 15.7562 12.4125 16.3438 11.6875 16.3438H4.3125C3.5875 16.3438 3 15.7562 3 15.0312V3.53125H13Z" fill="#5A5A5A"/>
</svg>
