<svg width="16" height="19" viewBox="0 0 16 19" fill="none" xmlns="http://www.w3.org/2000/svg">
<path fill-rule="evenodd" clip-rule="evenodd" d="M7.997 0C10.4798 0 12.4952 2.01544 12.4952 4.4982C12.4952 6.98095 10.4798 8.9964 7.997 8.9964C5.51424 8.9964 3.4988 6.98095 3.4988 4.4982C3.4988 2.01544 5.51424 0 7.997 0ZM7.997 1.4994C6.34204 1.4994 4.9982 2.84324 4.9982 4.4982C4.9982 6.15316 6.34204 7.497 7.997 7.497C9.65196 7.497 10.9958 6.15316 10.9958 4.4982C10.9958 2.84324 9.65196 1.4994 7.997 1.4994ZM11.7455 10.4958C12.7395 10.4958 13.6929 10.8906 14.3963 11.5935C15.0992 12.2969 15.494 13.2503 15.494 14.2443V16.4934C15.494 17.09 15.2572 17.6617 14.8355 18.084C14.4132 18.5057 13.8415 18.7425 13.2449 18.7425H2.7491C2.15247 18.7425 1.58082 18.5057 1.15849 18.084C0.736781 17.6617 0.5 17.09 0.5 16.4934V14.2443C0.5 13.2503 0.894844 12.2969 1.59769 11.5935C2.30116 10.8906 3.25452 10.4958 4.2485 10.4958H11.7455ZM11.7455 11.9952H4.2485C3.65186 11.9952 3.08021 12.232 2.65788 12.6537C2.23618 13.076 1.9994 13.6477 1.9994 14.2443V16.4934C1.9994 16.6921 2.07812 16.8826 2.21869 17.0238C2.35989 17.1644 2.55043 17.2431 2.7491 17.2431H13.2449C13.4436 17.2431 13.6341 17.1644 13.7753 17.0238C13.9159 16.8826 13.9946 16.6921 13.9946 16.4934V14.2443C13.9946 13.6477 13.7578 13.076 13.3361 12.6537C12.9138 12.232 12.3421 11.9952 11.7455 11.9952Z" fill="#2B2D42"/>
</svg>
