<svg width="32" height="32" viewBox="0 0 32 32" fill="none" xmlns="http://www.w3.org/2000/svg">
<path fill-rule="evenodd" clip-rule="evenodd" d="M23.9223 12.0931C23.9223 12.0931 22.1871 10.9218 20.7987 9.34087C19.7622 8.15997 18.9581 6.74723 18.9581 5.41113C18.9581 3.52554 20.4738 2.00098 22.332 2.00098C23.1476 2.00098 23.8966 2.29403 24.4809 2.78278C25.0651 2.29403 25.8142 2.00098 26.6298 2.00098C28.488 2.00098 30.0037 3.52554 30.0037 5.41113C30.0037 6.74723 29.1991 8.15997 28.1626 9.34087C26.7747 10.9218 25.0395 12.0931 25.0395 12.0931C24.7018 12.3211 24.26 12.3211 23.9223 12.0931ZM24.4809 10.0268C25.0343 9.60212 25.9068 8.88056 26.6616 8.02068C27.3627 7.222 28.0054 6.31488 28.0054 5.41113C28.0054 4.63655 27.3926 4.00128 26.6298 4.00128C26.0797 4.00128 25.6071 4.33289 25.3862 4.80622C25.2224 5.15856 24.8694 5.38414 24.4809 5.38414C24.0923 5.38414 23.7389 5.15856 23.5751 4.80622C23.3547 4.33289 22.882 4.00128 22.332 4.00128C21.5687 4.00128 20.9559 4.63655 20.9559 5.41113C20.9559 6.31488 21.5991 7.222 22.2997 8.02068C23.0549 8.88056 23.927 9.60212 24.4809 10.0268Z" fill="#EE243A"/>
<path fill-rule="evenodd" clip-rule="evenodd" d="M11.915 4.93457C15.2253 4.93457 17.9126 7.62183 17.9126 10.9322C17.9126 14.2425 15.2253 16.9298 11.915 16.9298C8.60466 16.9298 5.91741 14.2425 5.91741 10.9322C5.91741 7.62183 8.60466 4.93457 11.915 4.93457ZM11.915 6.93377C9.70839 6.93377 7.9166 8.72555 7.9166 10.9322C7.9166 13.1388 9.70839 14.9306 11.915 14.9306C14.1216 14.9306 15.9134 13.1388 15.9134 10.9322C15.9134 8.72555 14.1216 6.93377 11.915 6.93377ZM16.913 18.929C18.2383 18.929 19.5095 19.4554 20.4474 20.3925C21.3846 21.3305 21.911 22.6017 21.911 23.927V26.9258C21.911 27.7213 21.5953 28.4835 21.033 29.0466C20.4699 29.6089 19.7077 29.9246 18.9122 29.9246H4.91781C4.1223 29.9246 3.3601 29.6089 2.79699 29.0466C2.23471 28.4835 1.91901 27.7213 1.91901 26.9258V23.927C1.91901 22.6017 2.44547 21.3305 3.38259 20.3925C4.32055 19.4554 5.5917 18.929 6.91701 18.929H16.913ZM16.913 20.9282H6.91701C6.12149 20.9282 5.35929 21.2439 4.79618 21.8062C4.23391 22.3693 3.9182 23.1315 3.9182 23.927V26.9258C3.9182 27.1907 4.02317 27.4447 4.2106 27.633C4.39885 27.8204 4.65292 27.9254 4.91781 27.9254H18.9122C19.1771 27.9254 19.4312 27.8204 19.6194 27.633C19.8068 27.4447 19.9118 27.1907 19.9118 26.9258V23.927C19.9118 23.1315 19.5961 22.3693 19.0338 21.8062C18.4707 21.2439 17.7085 20.9282 16.913 20.9282Z" fill="#2B2D42"/>
</svg>
