<svg width="24" height="24" viewBox="0 0 24 24" fill="none" xmlns="http://www.w3.org/2000/svg">
<g clip-path="url(#clip0_45_3054)">
<path d="M15.6943 10.9214L10.3921 8.02027C10.0872 7.85346 9.72687 7.85968 9.42804 8.03675C9.12903 8.21399 8.95068 8.5271 8.95068 8.87464V14.6271C8.95068 14.973 9.12793 15.2855 9.42493 15.463C9.58002 15.5556 9.75195 15.6021 9.92426 15.6021C10.0821 15.6021 10.2403 15.5631 10.3859 15.4847L15.6882 12.6336C16.003 12.4642 16.1995 12.137 16.2009 11.7794C16.2022 11.4218 16.0081 11.0931 15.6943 10.9214ZM10.3571 13.9034V9.60413L14.3199 11.7725L10.3571 13.9034Z" fill="#5A5A5A"/>
<path d="M23.8235 7.19659L23.8224 7.18561C23.8021 6.99243 23.5997 5.27417 22.7644 4.40021C21.7989 3.37225 20.7043 3.24738 20.1779 3.1875C20.1343 3.18256 20.0944 3.17798 20.0587 3.17322L20.0167 3.16882C16.8439 2.93811 12.0522 2.90662 12.0042 2.90643L12 2.90625L11.9958 2.90643C11.9478 2.90662 7.15613 2.93811 3.95471 3.16882L3.91241 3.17322C3.87836 3.1778 3.84082 3.18201 3.79999 3.18677C3.2796 3.24683 2.19672 3.37189 1.22845 4.43701C0.432861 5.30164 0.202881 6.98309 0.17926 7.17206L0.176514 7.19659C0.169373 7.27698 0 9.19061 0 11.1118V12.9077C0 14.8288 0.169373 16.7424 0.176514 16.823L0.177795 16.8351C0.19812 17.0251 0.400269 18.7119 1.23175 19.5862C2.13959 20.5798 3.28748 20.7112 3.90491 20.7819C4.0025 20.7931 4.08655 20.8026 4.14386 20.8127L4.19934 20.8204C6.03131 20.9947 11.7751 21.0806 12.0187 21.084L12.026 21.0842L12.0333 21.084C12.0813 21.0839 16.8728 21.0524 20.0457 20.8217L20.0876 20.8173C20.1277 20.812 20.1727 20.8072 20.2222 20.8021C20.7396 20.7471 21.8167 20.6331 22.7715 19.5824C23.5671 18.7176 23.7973 17.0361 23.8207 16.8474L23.8235 16.8228C23.8306 16.7422 24.0002 14.8288 24.0002 12.9077V11.1118C24 9.19061 23.8306 7.27716 23.8235 7.19659ZM22.5936 12.9077C22.5936 14.6858 22.4383 16.517 22.4236 16.6851C22.364 17.1482 22.1213 18.212 21.7337 18.6334C21.136 19.2909 20.5221 19.3561 20.0739 19.4035C20.0197 19.4092 19.9695 19.4147 19.9241 19.4203C16.8552 19.6423 12.2444 19.6763 12.032 19.6776C11.7938 19.6741 6.13403 19.5875 4.35791 19.4225C4.26691 19.4077 4.16858 19.3964 4.06494 19.3846C3.53925 19.3244 2.81964 19.242 2.2663 18.6334L2.2533 18.6194C1.87244 18.2227 1.63678 17.2278 1.5769 16.6906C1.56573 16.5635 1.40643 14.7107 1.40643 12.9077V11.1118C1.40643 9.33563 1.56134 7.50641 1.57635 7.33484C1.64758 6.78937 1.89478 5.78998 2.2663 5.38605C2.88226 4.70856 3.53174 4.63348 3.9613 4.58386C4.00232 4.5791 4.04059 4.57471 4.07593 4.57013C7.18945 4.34711 11.8334 4.31396 12 4.31268C12.1666 4.31378 16.8089 4.34711 19.8948 4.57013C19.9327 4.57489 19.9741 4.57965 20.0186 4.58478C20.4604 4.63513 21.1282 4.7113 21.741 5.36499L21.7467 5.37103C22.1276 5.76782 22.3632 6.78003 22.4231 7.32806C22.4337 7.448 22.5936 9.30487 22.5936 11.1118V12.9077Z" fill="#5A5A5A"/>
</g>
<defs>
<clipPath id="clip0_45_3054">
<rect width="24.0001" height="24" fill="white"/>
</clipPath>
</defs>
</svg>
