<svg width="18" height="18" viewBox="0 0 18 18" fill="none" xmlns="http://www.w3.org/2000/svg">
<path d="M8.36372 6.48564L8.36381 6.48547C8.95938 5.28504 9.15521 4.66419 9.25322 3.57424C9.26894 3.39941 9.27749 3.19771 9.28021 2.97403C9.28347 2.70696 9.27837 2.42319 9.26794 2.144C9.26708 2.12082 9.26619 2.09817 9.26529 2.07612C9.31713 2.03502 9.36084 2.01466 9.4025 2.00765C9.45257 1.99923 9.51431 2.00769 9.6028 2.04926C10.5221 2.48113 11.2756 3.62511 10.9865 4.78735C10.8379 5.38481 10.7442 5.85606 10.6958 6.22277C10.6476 6.5877 10.6434 6.85618 10.6789 7.04467C10.6936 7.12286 10.7163 7.19288 10.7497 7.25476C10.8541 7.44841 11.062 7.56014 11.278 7.53273C11.3087 7.52885 11.37 7.52166 11.4584 7.51224C11.6068 7.49643 11.7748 7.48057 11.9587 7.46574C12.7118 7.40501 13.4812 7.38015 14.194 7.41113C14.6248 7.42986 15.0158 7.46869 15.3579 7.52901C15.6312 7.57722 15.793 7.66045 15.8905 7.78576C15.9894 7.91286 16.0373 8.10232 16.0371 8.39859C16.0369 8.54797 16.0021 8.72206 15.9503 8.87573C15.8973 9.03301 15.8323 9.15165 15.7824 9.20143C15.5572 9.42578 15.5661 9.80256 15.8022 10.0151C15.8308 10.0409 15.8682 10.1166 15.8839 10.2511C15.8989 10.3792 15.8919 10.5414 15.8532 10.7155C15.8157 10.8838 15.7571 11.0244 15.697 11.1234C15.6669 11.173 15.6377 11.21 15.6125 11.2345C15.6 11.2467 15.5896 11.2548 15.5816 11.2598C15.5766 11.2629 15.5734 11.2644 15.5718 11.2649C15.5708 11.2653 15.5705 11.2654 15.5709 11.2653C15.2602 11.3277 15.0758 11.6524 15.1615 11.9596C15.2724 12.3571 15.3012 12.6552 15.2413 12.9C15.1824 13.1404 15.0341 13.3435 14.7588 13.5439C14.6094 13.6526 14.5253 13.8321 14.533 14.0188C14.5513 14.4577 14.5198 14.7445 14.4555 14.9305C14.3933 15.1104 14.3026 15.1907 14.1949 15.2299C14.1265 15.2547 14.0786 15.2635 13.8832 15.2842C13.8328 15.2896 13.7972 15.2939 13.76 15.2998C13.2574 15.3793 11.8377 15.4112 10.3417 15.3953C8.8911 15.3798 7.38552 15.3195 6.59984 15.2174C6.26075 13.664 6.1409 10.8924 6.41311 8.74687C6.48785 8.68449 6.5702 8.61368 6.65834 8.53529C6.91997 8.30264 7.18194 8.0489 7.42795 7.78124C7.82885 7.34507 8.15156 6.9113 8.36372 6.48564ZM6.65854 7.0206C6.51309 7.17884 6.36001 7.33298 6.20424 7.48034C6.12226 7.44298 6.02927 7.42643 5.9318 7.43774C4.19004 7.63979 3.33411 7.60663 2.02952 7.23801C1.72137 7.15093 1.41619 7.36207 1.36545 7.67969C0.783904 11.3204 0.690808 14.0475 1.41168 16.5175C1.47194 16.724 1.64406 16.8775 1.85458 16.9048C3.10047 17.0658 3.8637 17.1359 4.5105 17.0821C5.16119 17.0281 5.68918 16.8492 6.46516 16.5247C6.5619 16.4843 6.64067 16.4176 6.69717 16.3364C7.63397 16.4348 9.15186 16.4895 10.5716 16.4998C12.0212 16.5103 13.3821 16.4747 13.9204 16.3895C13.9349 16.3872 13.9549 16.3847 13.9914 16.3809C14.2587 16.3525 14.3666 16.3355 14.5463 16.2703C14.8904 16.1453 15.1564 15.9126 15.3346 15.5672C15.5066 15.2339 15.5949 14.7996 15.5999 14.2614C15.9284 13.9699 16.1401 13.6429 16.2482 13.2754C16.355 12.9126 16.3588 12.5167 16.2824 12.0861C16.5894 11.8163 16.8001 11.3856 16.8948 10.9361C16.9903 10.4825 16.9714 9.99189 16.7981 9.60354C16.9811 9.25578 17.0997 8.80582 17.1 8.39954C17.1004 7.86753 16.9763 7.42281 16.713 7.08673C16.4489 6.74971 16.054 6.53358 15.5361 6.44225C15.1445 6.37321 14.7095 6.33021 14.2386 6.30974C13.477 6.27663 12.6667 6.30295 11.8762 6.3667C11.8333 6.37016 11.7912 6.37367 11.75 6.37723C11.7949 6.03762 11.8798 5.60958 12.0158 5.06274C12.4556 3.29405 11.3727 1.67052 10.0415 1.04513C9.47385 0.778473 8.95005 0.897806 8.55667 1.25154C8.41985 1.37458 8.32495 1.50008 8.26694 1.60151C8.21262 1.69648 8.18718 1.80597 8.19353 1.91574C8.19651 1.96733 8.20114 2.06186 8.2058 2.18669C8.2156 2.44909 8.22035 2.71464 8.21736 2.9601C8.21494 3.15817 8.20752 3.3312 8.19487 3.47185C8.111 4.40457 7.95857 4.89277 7.42149 5.97532C7.26261 6.29407 7.00021 6.64887 6.65854 7.0206ZM2.33531 15.8553C1.81395 13.812 1.87281 11.4847 2.32321 8.44933C3.31315 8.67703 4.1507 8.71264 5.35904 8.60497C5.05952 10.9683 5.20482 14.0082 5.61612 15.6845C5.13044 15.8703 4.76214 15.9668 4.30312 15.9923C3.82607 16.0188 3.24769 15.9689 2.33531 15.8553Z" fill="#DC6D0D" stroke="#DC6D0D" stroke-width="0.2"/>
</svg>
