<svg width="11" height="12" viewBox="0 0 11 12" fill="none" xmlns="http://www.w3.org/2000/svg">
<path d="M4.37712 2.32796L4.70816 3.24729C5.07589 4.26761 5.87938 5.0711 6.8997 5.43883L7.81903 5.76987C7.90189 5.79996 7.90189 5.91745 7.81903 5.94713L6.8997 6.27817C5.87938 6.6459 5.07589 7.44939 4.70816 8.46971L4.37712 9.38904C4.34703 9.4719 4.22954 9.4719 4.19985 9.38904L3.86881 8.46971C3.50108 7.44939 2.6976 6.6459 1.67727 6.27817L0.757948 5.94713C0.675085 5.91704 0.675085 5.79955 0.757948 5.76987L1.67727 5.43883C2.6976 5.0711 3.50108 4.26761 3.86881 3.24729L4.19985 2.32796C4.22954 2.24468 4.34703 2.24468 4.37712 2.32796Z" fill="white"/>
<path d="M8.5153 0.118761L8.68308 0.584195C8.86942 1.10075 9.27632 1.50764 9.79287 1.69398L10.2583 1.86177C10.3004 1.87702 10.3004 1.93639 10.2583 1.95164L9.79287 2.11943C9.27632 2.30577 8.86942 2.71266 8.68308 3.22921L8.5153 3.69465C8.50004 3.7367 8.44068 3.7367 8.42543 3.69465L8.25764 3.22921C8.0713 2.71266 7.6644 2.30577 7.14785 2.11943L6.68242 1.95164C6.64037 1.93639 6.64037 1.87702 6.68242 1.86177L7.14785 1.69398C7.6644 1.50764 8.0713 1.10075 8.25764 0.584195L8.42543 0.118761C8.44068 0.0762985 8.50046 0.0762985 8.5153 0.118761Z" fill="white"/>
<path d="M8.5153 8.02287L8.68308 8.4883C8.86942 9.00486 9.27632 9.41175 9.79287 9.59809L10.2583 9.76588C10.3004 9.78113 10.3004 9.8405 10.2583 9.85575L9.79287 10.0235C9.27632 10.2099 8.86942 10.6168 8.68308 11.1333L8.5153 11.5988C8.50004 11.6408 8.44068 11.6408 8.42543 11.5988L8.25764 11.1333C8.0713 10.6168 7.6644 10.2099 7.14785 10.0235L6.68242 9.85575C6.64037 9.8405 6.64037 9.78113 6.68242 9.76588L7.14785 9.59809C7.6644 9.41175 8.0713 9.00486 8.25764 8.4883L8.42543 8.02287C8.44068 7.98082 8.50046 7.98082 8.5153 8.02287Z" fill="white"/>
</svg>
