<svg width="79" height="79" viewBox="0 0 79 79" fill="none" xmlns="http://www.w3.org/2000/svg">
<circle cx="39.5" cy="39.5" r="39.5" fill="white" fill-opacity="0.06"/>
<circle cx="39.5" cy="39.5" r="39" stroke="white" stroke-opacity="0.3"/>
<circle cx="39.5" cy="39.5" r="30" fill="white" fill-opacity="0.3"/>
<circle cx="39.5" cy="39.5" r="29.5" stroke="white" stroke-opacity="0.58"/>
<path d="M43.75 28.875V39.5C43.75 40.6272 43.3022 41.7082 42.5052 42.5052C41.7082 43.3022 40.6272 43.75 39.5 43.75C38.3728 43.75 37.2918 43.3022 36.4948 42.5052C35.6978 41.7082 35.25 40.6272 35.25 39.5V28.875C35.25 27.7478 35.6978 26.6668 36.4948 25.8698C37.2918 25.0728 38.3728 24.625 39.5 24.625C40.6272 24.625 41.7082 25.0728 42.5052 25.8698C43.3022 26.6668 43.75 27.7478 43.75 28.875Z" fill="white"/>
<path d="M40.5625 47.9363V52.25H44.8125C45.0943 52.25 45.3645 52.3619 45.5638 52.5612C45.7631 52.7605 45.875 53.0307 45.875 53.3125C45.875 53.5943 45.7631 53.8645 45.5638 54.0638C45.3645 54.2631 45.0943 54.375 44.8125 54.375H34.1875C33.9057 54.375 33.6355 54.2631 33.4362 54.0638C33.2369 53.8645 33.125 53.5943 33.125 53.3125C33.125 53.0307 33.2369 52.7605 33.4362 52.5612C33.6355 52.3619 33.9057 52.25 34.1875 52.25H38.4375V47.9363C34.2513 47.4794 31 44.345 31 40.5625V37.375C31 37.0932 31.1119 36.823 31.3112 36.6237C31.5105 36.4244 31.7807 36.3125 32.0625 36.3125C32.3443 36.3125 32.6145 36.4244 32.8138 36.6237C33.0131 36.823 33.125 37.0932 33.125 37.375V40.5625C33.125 43.495 35.9831 45.875 39.5 45.875C43.0169 45.875 45.875 43.495 45.875 40.5625V37.375C45.875 37.0932 45.9869 36.823 46.1862 36.6237C46.3855 36.4244 46.6557 36.3125 46.9375 36.3125C47.2193 36.3125 47.4895 36.4244 47.6888 36.6237C47.8881 36.823 48 37.0932 48 37.375V40.5625C48 44.345 44.7487 47.4794 40.5625 47.9363Z" fill="white"/>
</svg>
