<svg width="79" height="79" viewBox="0 0 79 79" fill="none" xmlns="http://www.w3.org/2000/svg">
<rect width="79" height="79" rx="39.5" fill="white" fill-opacity="0.06"/>
<rect x="0.5" y="0.5" width="78" height="78" rx="39" stroke="white" stroke-opacity="0.3"/>
<rect x="10" y="9.5" width="60" height="60" rx="30" fill="white" fill-opacity="0.3"/>
<rect x="10.5" y="10" width="59" height="59" rx="29.5" stroke="white" stroke-opacity="0.58"/>
<g clip-path="url(#clip0_153_13273)">
<g clip-path="url(#clip1_153_13273)">
<path fill-rule="evenodd" clip-rule="evenodd" d="M51.9255 24.3893C51.8627 24.1129 51.6169 23.9167 51.3335 23.9167C51.0501 23.9167 50.8043 24.1129 50.7415 24.3893L50.4055 25.8666C50.2502 26.5499 49.7166 27.0834 49.0333 27.2388L47.556 27.5747C47.2796 27.6376 47.0835 27.8833 47.0835 28.1667C47.0835 28.4502 47.2796 28.6959 47.556 28.7588L49.0333 29.0947C49.7166 29.2501 50.2502 29.7836 50.4055 30.4669L50.7415 31.9442C50.8043 32.2206 51.0501 32.4167 51.3335 32.4167C51.6169 32.4167 51.8627 32.2206 51.9255 31.9442L52.2615 30.4669C52.4168 29.7836 52.9504 29.2501 53.6337 29.0947L55.111 28.7588C55.3874 28.6959 55.5835 28.4502 55.5835 28.1667C55.5835 27.8833 55.3874 27.6376 55.111 27.5747L53.6337 27.2388C52.9504 27.0834 52.4168 26.5499 52.2615 25.8666L51.9255 24.3893Z" fill="white"/>
<path fill-rule="evenodd" clip-rule="evenodd" d="M45.2545 22.7363C45.2231 22.5981 45.1002 22.5 44.9585 22.5C44.8168 22.5 44.6939 22.5981 44.6625 22.7363L44.4945 23.4749C44.4168 23.8166 44.1501 24.0833 43.8084 24.161L43.0698 24.329C42.9316 24.3604 42.8335 24.4833 42.8335 24.625C42.8335 24.7667 42.9316 24.8896 43.0698 24.921L43.8084 25.089C44.1501 25.1667 44.4168 25.4334 44.4945 25.7751L44.6625 26.5137C44.6939 26.6519 44.8168 26.75 44.9585 26.75C45.1002 26.75 45.2231 26.6519 45.2545 26.5137L45.4225 25.7751C45.5002 25.4334 45.7669 25.1667 46.1086 25.089L46.8472 24.921C46.9854 24.8896 47.0835 24.7667 47.0835 24.625C47.0835 24.4833 46.9854 24.3604 46.8472 24.329L46.1086 24.161C45.7669 24.0833 45.5002 23.8166 45.4225 23.4749L45.2545 22.7363Z" fill="white"/>
<path d="M40.709 29.5835C41.2958 29.5835 41.7715 30.0592 41.7715 30.646V52.9585C41.7715 53.5453 41.2958 54.021 40.709 54.021C40.1222 54.021 39.6465 53.5453 39.6465 52.9585V30.646C39.6465 30.0592 40.1222 29.5835 40.709 29.5835Z" fill="white"/>
<path d="M32.209 33.3022C32.209 32.7154 31.7333 32.2397 31.1465 32.2397C30.5597 32.2397 30.084 32.7154 30.084 33.3022V50.3022C30.084 50.8891 30.5597 51.3647 31.1465 51.3647C31.7333 51.3647 32.209 50.8891 32.209 50.3022V33.3022Z" fill="white"/>
<path d="M36.9902 35.4272C36.9902 34.8404 36.5146 34.3647 35.9277 34.3647C35.3409 34.3647 34.8652 34.8404 34.8652 35.4272V48.1772C34.8652 48.7641 35.3409 49.2397 35.9277 49.2397C36.5146 49.2397 36.9902 48.7641 36.9902 48.1772V35.4272Z" fill="white"/>
<path d="M46.5527 33.8335C46.5527 33.2467 46.0771 32.771 45.4902 32.771C44.9034 32.771 44.4277 33.2467 44.4277 33.8335V49.771C44.4277 50.3578 44.9034 50.8335 45.4902 50.8335C46.0771 50.8335 46.5527 50.3578 46.5527 49.771V33.8335Z" fill="white"/>
<path d="M50.2715 36.4897C50.8583 36.4897 51.334 36.9654 51.334 37.5522V46.0522C51.334 46.6391 50.8583 47.1147 50.2715 47.1147C49.6847 47.1147 49.209 46.6391 49.209 46.0522V37.5522C49.209 36.9654 49.6847 36.4897 50.2715 36.4897Z" fill="white"/>
<path d="M26.8965 36.4897C27.4833 36.4897 27.959 36.9654 27.959 37.5522V46.0522C27.959 46.6391 27.4833 47.1147 26.8965 47.1147C26.3097 47.1147 25.834 46.6391 25.834 46.0522V37.5522C25.834 36.9654 26.3097 36.4897 26.8965 36.4897Z" fill="white"/>
</g>
</g>
<defs>
<clipPath id="clip0_153_13273">
<rect width="34" height="34" fill="white" transform="translate(23 22.5)"/>
</clipPath>
<clipPath id="clip1_153_13273">
<rect width="34" height="34" fill="white" transform="translate(23 22.5)"/>
</clipPath>
</defs>
</svg>
